# xmcd
#
# Track frame offsets:
#	150
#	12755
#	27692
#	41460
#	53405
#	72452
#	87645
#	103430
#	118240
#	130415
#
# Disc length: 1922 seconds
#
# Revision: 1
# Processed by: cddbd v1.5.2PL0 Copyright (c) Steve Scherf et al.
# Submitted via: audiograbber 1.83.01
#
DISCID=9107800a
DTITLE=Various  - Country Classics 1986-1990
DYEAR=8990
DGENRE=Country
TTITLE0=Sawyer Brown - Step That Step
TTITLE1=T. Graham Brown - Darlene
TTITLE2=Nelson-Cash-Jennings-Kristoffferson - Highwayman
TTITLE3=MelMcDaniel - Stand on it
TTITLE4=KT Oslin - 80's Ladies
TTITLE5=Ricky Van Shelton - Life Turned Her That Way
TTITLE6=Restlessheart - That Roll Won;t Roll
TTITLE7=George Jones - Who's Gonna fill their Shoes
TTITLE8=Sweet Hearts of the Rodeo - Satisfy You
TTITLE9=Lee Greenwould - Don't Under Estimate My Love
EXTD=
EXTT0=
EXTT1=
EXTT2=
EXTT3=
EXTT4=
EXTT5=
EXTT6=
EXTT7=
EXTT8=
EXTT9=
PLAYORDER=
